# xmcd
#
# Track frame offsets: 
#        150
#        40469
#        66845
#        101940
#        132264
#        173528
#        196795
#        224241
#        240188
#        270311
#        284125
#        305251
#
# Disc length: 4529 seconds
#
# Revision: 0
# Processed by: cddbd v1.5.2PL0 Copyright (c) Steve Scherf et al.
# Submitted via: ExactAudioCopy v0.95b4
#
DISCID=b311af0c
DTITLE=Various Artist - House 21
DYEAR=1900
DGENRE=
TTITLE0=Andora - Blade Runner
TTITLE1=Sasha - Color of the world
TTITLE2=Loopzille - I need rhythm
TTITLE3=Mythos´n DJ Cosma - The heart of the ocean
TTITLE4=Ermitage - Poljuska
TTITLE5=Nek - Se una regola c`é
TTITLE6=Orinoko - Villa nova
TTITLE7=Phats and small - Turn around
TTITLE8=Sleepless man - First extraction
TTITLE9=Stretch`n verne - I´m alive 
TTITLE10=Dr. Bombay - S.O.S.
TTITLE11=Warmduscher - Auf die Fresse
EXTD=
EXTT0=
EXTT1=
EXTT2=
EXTT3=
EXTT4=
EXTT5=
EXTT6=
EXTT7=
EXTT8=
EXTT9=
EXTT10=
EXTT11=
PLAYORDER=
